<svg width="40" height="40" viewBox="0 0 40 40" fill="none" xmlns="http://www.w3.org/2000/svg">
<rect width="40" height="40" rx="20" fill="white"/>
<path d="M20 10C14.486 10 10 14.4859 10 20C10 25.5141 14.4859 30 20 30C25.5141 30 30 25.5141 30 20C29.9999 14.4859 25.514 10 20 10ZM24.7836 18.5588L19.9275 23.4148C19.655 23.6874 19.2978 23.8237 18.9407 23.8237C18.5835 23.8237 18.2263 23.6875 17.9539 23.4148L15.2165 20.6774C14.6715 20.1324 14.6715 19.2488 15.2165 18.7037C15.7615 18.1587 16.6452 18.1587 17.1902 18.7037L18.9408 20.4542L22.81 16.5851C23.3549 16.04 24.2386 16.04 24.7837 16.5851C25.3286 17.1301 25.3286 18.0137 24.7836 18.5588Z" fill="#219653"/>
</svg>
